# Alias OBJ Model File
# Exported from SketchUp, (c) 2000-2012 Trimble Navigation Limited
# File units = millimeters

mtllib Octotable.mtl

g Mesh1 Group1 Model

usemtl Color_M03
v -150 40 -5.68434e-14
vt -6.03254 1.5748
vn -0.92388 5.71934e-16 0.382683
v -106.066 0 106.066
vt -1.51266 2.08864e-15
v -106.066 40 106.066
vt -1.51266 1.5748
f 1/1/1 2/2/1 3/3/1

v -150 0 -2.84217e-14
vt -6.03254 2.08864e-15
f 2/2/1 1/1/1 4/4/1

vt -6.84792 1.5748
vn -0.92388 -1.37053e-16 -0.382683
v -106.066 0 -106.066
vt -11.3678 2.30712e-16
vt -6.84792 2.30712e-16
f 1/5/2 5/6/2 4/7/2

v -106.066 40 -106.066
vt -11.3678 1.5748
f 5/6/2 1/5/2 6/8/2

usemtl Color_M02
v -139.176 50 -5.68434e-14
vt -7.011 0.480002
vn -0.653281 0.707107 -0.270598
vt -11.3678 -0.0767755
vt -6.84792 -0.0767755
f 7/9/3 6/10/3 1/11/3

v -98.4123 50 -98.4123
vt -11.2047 0.480002
f 6/10/3 7/9/3 8/12/3

usemtl Color_M03
v -122.94 50 -2.84217e-14
vt 2.13069 6.97086
vn 0 1 -0
vt 3.09636 10.8454
vt 1.49149 6.97086
f 9/13/4 8/14/4 7/15/4

v -86.9318 50 -86.9318
vt 3.54834 10.3934
f 8/14/4 9/13/4 10/16/4

usemtl Color_M09
vt -7.25561 1.9685
vn -0.92388 2.12211e-18 -0.382683
v -86.9318 300 -86.9318
vt -10.9601 11.811
vt -10.9601 1.9685
f 9/17/5 11/18/5 10/19/5

v -122.94 300 -2.84217e-14
vt -7.25561 11.811
f 11/18/5 9/17/5 12/20/5

v -86.9318 50 86.9318
vt -1.92035 1.9685
vn -0.92388 6.80582e-18 0.382683
vt -5.62485 11.811
vt -5.62485 1.9685
f 13/21/6 12/22/6 9/23/6

v -86.9318 300 86.9318
vt -1.92035 11.811
f 12/22/6 13/21/6 14/24/6

vt 1.92035 1.9685
vn -0.382683 -2.12211e-18 0.92388
v 0 300 122.94
vt 5.62485 11.811
vt 1.92035 11.811
f 13/25/7 15/26/7 14/27/7

v 0 50 122.94
vt 5.62485 1.9685
f 15/26/7 13/25/7 16/28/7

usemtl Color_M03
vt 3.54834 3.54834
v 0 50 139.176
vt 6.97086 1.49149
vt 6.97086 2.13069
f 13/29/4 17/30/4 16/31/4

v -98.4123 50 98.4123
vt 3.09636 3.09636
f 13/29/4 18/32/4 17/30/4

f 9/13/4 18/32/4 13/29/4

f 18/32/4 9/13/4 7/15/4

usemtl Color_M02
vt -5.86947 4.2526
vn -0.653281 0.707107 0.270598
vt -1.51266 3.69583
vt -1.67574 4.2526
f 7/33/8 3/34/8 18/35/8

vt -6.03254 3.69583
f 3/34/8 7/33/8 1/36/8

v 0 40 150
vt 6.03254 3.69583
vn -0.270598 0.707107 0.653281
vt 1.67574 4.2526
vt 1.51266 3.69583
f 19/37/9 18/38/9 3/39/9

vt 5.86947 4.2526
f 18/38/9 19/37/9 17/40/9

v 106.066 40 106.066
vt 11.3678 -0.0767755
vn 0.270598 0.707107 0.653281
vt 7.011 0.480002
vt 6.84792 -0.0767755
f 20/41/10 17/42/10 19/43/10

v 98.4123 50 98.4123
vt 11.2047 0.480002
f 17/42/10 20/41/10 21/44/10

vt 6.84792 -5.41204
vn 0.653281 0.707107 0.270598
v 139.176 50 -0
vt 11.2047 -4.85526
vt 7.011 -4.85526
f 20/45/11 22/46/11 21/47/11

v 150 40 -0
vt 11.3678 -5.41204
f 22/46/11 20/45/11 23/48/11

usemtl Color_M03
vt 6.84792 1.5748
vn 0.92388 6.85263e-17 0.382683
v 150 0 -0
vt 11.3678 -6.32401e-16
vt 11.3678 1.5748
f 20/49/12 24/50/12 23/51/12

v 106.066 0 106.066
vt 6.84792 -6.32401e-16
f 24/50/12 20/49/12 25/52/12

vn 0.382683 0 0.92388
v 0 0 150
vt 6.84792 0
vt 11.3678 0
f 20/51/13 26/53/13 25/54/13

f 26/53/13 20/51/13 19/49/13

vt 6.03254 1.5748
vn -0.382683 -3.32092e-16 0.92388
vt 1.51266 -1.21276e-15
vt 6.03254 -1.21276e-15
f 19/55/14 2/56/14 26/57/14

vt 1.51266 1.5748
f 2/56/14 19/55/14 3/58/14

vt -2.79503 2.79503
vn 0 -1 -0
vt -2.79503 11.1467
vt -6.97086 1.06535
f 2/59/15 5/60/15 26/61/15

vt -1.06535 6.97086
f 5/60/15 2/59/15 4/62/15

v 2.84217e-14 0 -150
vt -6.97086 12.8764
f 26/61/15 5/60/15 27/63/15

vn -0.382683 3.16682e-16 -0.92388
vt -11.3678 -2.92253e-15
vt -6.84792 -2.92253e-15
f 6/5/16 27/64/16 5/65/16

v 5.68434e-14 40 -150
f 27/64/16 6/5/16 28/8/16

usemtl Color_M02
vt -7.011 -4.85526
vn -0.270598 0.707107 -0.653281
vt -11.3678 -5.41204
vt -6.84792 -5.41204
f 8/66/17 28/67/17 6/68/17

v 2.84217e-14 50 -139.176
vt -11.2047 -4.85526
f 28/67/17 8/66/17 29/69/17

usemtl Color_M03
vt 6.97086 12.4502
f 8/14/4 10/16/4 29/70/4

v 0 50 -122.94
vt 6.97086 11.811
f 29/70/4 10/16/4 30/71/4

usemtl Color_M09
vn -0.382683 4.68371e-18 -0.92388
f 11/20/18 30/19/18 10/17/18

v 0 300 -122.94
f 30/19/18 11/20/18 31/18/18

usemtl Color_M03
vt -3.54834 10.3934
v 5.68434e-14 300 -150
vt -6.97086 11.811
f 11/72/15 32/63/15 31/73/15

v -106.066 300 -106.066
f 11/72/15 33/60/15 32/63/15

vt -2.13069 6.97086
f 12/74/15 33/60/15 11/72/15

v -150 300 -2.84217e-14
f 33/60/15 12/74/15 34/62/15

v -106.066 300 106.066
f 12/74/15 35/59/15 34/62/15

vt -3.54834 3.54834
f 35/59/15 12/74/15 14/75/15

vn -0.92388 0 0.382683
v -122.94 350 -2.84217e-14
vt -5.62485 13.7795
f 14/24/19 36/76/19 12/22/19

v -86.9318 350 86.9318
vt -1.92035 13.7795
f 36/76/19 14/24/19 37/77/19

vn -0.382683 0 0.92388
v 0 350 122.94
vt 5.62485 13.7795
vt 1.92035 13.7795
f 14/27/20 38/78/20 37/79/20

f 38/78/20 14/27/20 15/26/20

v 0 300 150
vt -6.97086 2.13069
f 39/61/15 14/75/15 15/80/15

f 35/59/15 14/75/15 39/61/15

usemtl Color_M02
v 0 325 177.06
vt 6.44023 7.16133
vn -0.270598 -0.707107 0.653281
vt 1.51266 5.76938
vt 6.03254 5.76938
f 40/81/21 35/82/21 39/83/21

v -125.2 325 125.2
vt 1.10497 7.16133
f 35/82/21 40/81/21 41/84/21

usemtl Color_M03
v 0 500 177.06
vt 6.44023 19.685
vt 1.10497 12.7953
vt 6.44023 12.7953
f 42/85/20 41/86/20 40/87/20

v -125.2 500 125.2
vt 1.10497 19.685
f 41/86/20 42/85/20 43/88/20

v -86.9318 500 86.9318
vt 2.04172 2.04172
vt 6.97086 0
f 44/29/4 43/89/4 42/90/4

v -122.94 500 -2.84217e-14
f 45/13/4 43/89/4 44/29/4

v -125.2 500 -125.2
vt 2.04172 11.9
f 46/91/4 43/89/4 45/13/4

v -177.06 500 -2.84217e-14
vt 0 6.97086
f 43/89/4 46/91/4 47/92/4

vt -11.7755 19.685
vn -0.92388 3.18615e-17 -0.382683
v -177.06 325 -2.84217e-14
vt -6.44023 12.7953
vt -6.44023 19.685
f 46/93/22 48/94/22 47/95/22

v -125.2 325 -125.2
vt -11.7755 12.7953
f 48/94/22 46/93/22 49/96/22

vn -0.382683 -7.48233e-17 -0.92388
v 5.68434e-14 325 -177.06
f 46/95/23 50/96/23 49/94/23

v 2.84217e-14 500 -177.06
f 50/96/23 46/95/23 51/93/23

v -86.9318 500 -86.9318
vt 6.97086 13.9417
f 46/91/4 52/16/4 51/97/4

f 52/16/4 46/91/4 45/13/4

usemtl Color_M09
f 44/29/4 52/16/4 45/13/4

v 0 500 122.94
f 52/16/4 44/29/4 53/31/4

usemtl Color_M03
f 44/29/4 42/90/4 53/31/4

v 125.2 500 125.2
vt 11.9 2.04172
f 53/31/4 42/90/4 54/98/4

vt 11.7755 19.685
f 40/87/13 54/99/13 42/85/13

v 125.2 325 125.2
vt 11.7755 12.7953
f 54/99/13 40/87/13 55/100/13

usemtl Color_M02
vt 6.44023 10.9339
vn 0.270598 -0.707107 0.653281
v 106.066 300 106.066
vt 11.3678 9.54198
vt 11.7755 10.9339
f 40/101/24 56/102/24 55/103/24

vt 6.84792 9.54198
f 56/102/24 40/101/24 39/104/24

usemtl Color_M03
v 86.9318 300 86.9318
vt -10.3934 3.54834
vt -11.1467 2.79503
f 39/61/15 57/105/15 56/106/15

f 39/61/15 15/80/15 57/105/15

v 86.9318 350 86.9318
vt 10.9601 13.7795
vt 7.25561 11.811
vt 10.9601 11.811
f 58/107/13 15/108/13 57/109/13

vt 7.25561 13.7795
f 15/108/13 58/107/13 38/110/13

usemtl FrontColor
v 0 350 -122.94
vt 10.3934 3.54834
f 59/71/4 38/31/4 58/111/4

v -86.9318 350 -86.9318
f 60/16/4 38/31/4 59/71/4

f 60/16/4 37/29/4 38/31/4

f 37/29/4 60/16/4 36/13/4

usemtl Color_M03
vt -10.9601 13.7795
vn -0.92388 0 -0.382683
vt -7.25561 13.7795
f 60/112/25 12/20/25 36/113/25

f 12/20/25 60/112/25 11/18/25

usemtl FrontColor
vn -0.382683 0 -0.92388
f 60/113/26 31/18/26 11/20/26

f 31/18/26 60/113/26 59/112/26

usemtl Color_M03
vn 0.382683 0 -0.92388
v 86.9318 300 -86.9318
f 59/77/27 61/22/27 31/24/27

v 86.9318 350 -86.9318
f 61/22/27 59/77/27 62/76/27

usemtl FrontColor
vt 10.3934 10.3934
f 59/71/4 58/111/4 62/114/4

v 122.94 350 -0
vt 11.811 6.97086
f 62/114/4 58/111/4 63/115/4

usemtl Color_M03
vn 0.92388 0 0.382683
v 122.94 300 -0
f 58/110/28 64/109/28 63/107/28

f 64/109/28 58/110/28 57/108/28

vt -11.811 6.97086
f 56/106/15 57/105/15 64/116/15

usemtl Color_M09
vn 0.92388 -4.39502e-19 0.382683
v 122.94 50 -0
vt 10.9601 1.9685
f 57/108/29 65/117/29 64/109/29

v 86.9318 50 86.9318
vt 7.25561 1.9685
f 65/117/29 57/108/29 66/118/29

f 57/109/13 16/118/13 66/117/13

f 16/118/13 57/109/13 15/108/13

usemtl Color_M03
vt 10.8454 3.09636
f 16/31/4 21/119/4 66/111/4

f 16/31/4 17/30/4 21/119/4

f 66/111/4 21/119/4 65/115/4

vt 12.4502 6.97086
f 65/115/4 21/119/4 22/120/4

v 98.4123 50 -98.4123
vt 10.8454 10.8454
f 67/121/4 65/115/4 22/120/4

v 86.9318 50 -86.9318
f 67/121/4 68/114/4 65/115/4

f 29/70/4 68/114/4 67/121/4

f 29/70/4 30/71/4 68/114/4

usemtl Color_M09
vn 0.382683 6.40402e-18 -0.92388
f 31/24/30 68/23/30 30/21/30

f 68/23/30 31/24/30 61/22/30

usemtl Color_M03
vt -10.3934 10.3934
f 31/73/15 32/63/15 61/122/15

v 106.066 300 -106.066
vt -11.1467 11.1467
f 61/122/15 32/63/15 69/123/15

usemtl Color_M02
vt -1.51266 18.6498
vn 0.270598 -0.707107 -0.653281
v 125.2 325 -125.2
vt -6.44023 20.0418
vt -6.03254 18.6498
f 32/124/31 70/125/31 69/126/31

vt -1.10497 20.0418
f 70/125/31 32/124/31 50/127/31

vt -6.84792 14.8772
vn -0.270598 -0.707107 -0.653281
vt -11.7755 16.2692
vt -11.3678 14.8772
f 33/128/32 50/129/32 32/130/32

vt -6.44023 16.2692
f 50/129/32 33/128/32 49/131/32

vt -6.84792 9.54198
vn -0.653281 -0.707107 -0.270598
vt -11.7755 10.9339
vt -11.3678 9.54198
f 34/132/33 49/133/33 33/134/33

vt -6.44023 10.9339
f 49/133/33 34/132/33 48/135/33

vt -6.03254 5.76938
vn -0.653281 -0.707107 0.270598
vt -1.10497 7.16133
vt -6.44023 7.16133
f 34/136/34 41/137/34 48/138/34

vt -1.51266 5.76938
f 41/137/34 34/136/34 35/139/34

usemtl Color_M03
vt -1.10497 12.7953
f 41/140/19 47/95/19 48/94/19

vt -1.10497 19.685
f 47/95/19 41/140/19 43/141/19

vn 0.382683 7.48233e-17 -0.92388
f 51/141/35 70/94/35 50/140/35

v 125.2 500 -125.2
f 70/94/35 51/141/35 71/95/35

v 86.9318 500 -86.9318
vt 11.9 11.9
f 51/97/4 72/114/4 71/142/4

v 0 500 -122.94
f 51/97/4 73/71/4 72/114/4

f 51/97/4 52/16/4 73/71/4

usemtl Color_M09
f 52/16/4 53/31/4 73/71/4

v 86.9318 500 86.9318
f 73/71/4 53/31/4 74/111/4

usemtl Color_M03
f 53/31/4 54/98/4 74/111/4

v 122.94 500 -0
f 74/111/4 54/98/4 75/115/4

f 71/142/4 75/115/4 54/98/4

f 71/142/4 72/114/4 75/115/4

usemtl Color_M09
f 72/114/4 74/111/4 75/115/4

f 73/71/4 74/111/4 72/114/4

usemtl Color_M03
v 177.06 500 -0
vt 13.9417 6.97086
f 71/142/4 54/98/4 76/143/4

vn 0.92388 2.86412e-17 0.382683
v 177.06 325 5.68434e-14
f 54/85/36 77/100/36 76/99/36

f 77/100/36 54/85/36 55/87/36

usemtl Color_M02
vt 6.44023 16.2692
vn 0.653281 -0.707107 0.270598
v 150 300 2.84217e-14
vt 11.3678 14.8772
vt 11.7755 16.2692
f 55/144/37 78/145/37 77/146/37

vt 6.84792 14.8772
f 78/145/37 55/144/37 56/147/37

usemtl Color_M03
vt -12.8764 6.97086
f 56/106/15 64/116/15 78/148/15

f 64/116/15 69/123/15 78/148/15

f 61/122/15 69/123/15 64/116/15

vn 0.92388 0 -0.382683
f 61/26/38 63/79/38 64/27/38

f 63/79/38 61/26/38 62/78/38

usemtl Color_M09
vn 0.92388 2.56161e-18 -0.382683
f 64/27/39 68/28/39 61/26/39

f 68/28/39 64/27/39 65/25/39

usemtl Color_M02
vt 6.44023 20.0418
vn 0.653281 -0.707107 -0.270598
vt 1.51266 18.6498
vt 6.03254 18.6498
f 70/149/40 78/150/40 69/151/40

vt 1.10497 20.0418
f 78/150/40 70/149/40 77/152/40

usemtl Color_M03
vn 0.92388 -7.48233e-17 -0.382683
f 70/87/41 76/88/41 77/86/41

f 76/88/41 70/87/41 71/85/41

usemtl Color_M02
vt -5.86947 -8.62786
vn 0.270598 0.707107 -0.653281
vt -1.51266 -9.18464
vt -1.67574 -8.62786
f 67/153/42 28/154/42 29/155/42

v 106.066 40 -106.066
vt -6.03254 -9.18464
f 28/154/42 67/153/42 79/156/42

vt 1.67574 -8.62786
vn 0.653281 0.707107 -0.270598
vt 6.03254 -9.18464
vt 5.86947 -8.62786
f 22/157/43 79/158/43 67/159/43

vt 1.51266 -9.18464
f 79/158/43 22/157/43 23/160/43

usemtl Color_M03
vn 0.92388 -1.79629e-16 -0.382683
v 106.066 0 -106.066
vt 6.03254 2.6161e-15
f 23/58/44 80/161/44 79/55/44

vt 1.51266 2.6161e-15
f 80/161/44 23/58/44 24/162/44

f 25/106/15 80/123/15 24/148/15

f 25/106/15 27/63/15 80/123/15

f 26/61/15 27/63/15 25/106/15

vn 0.382683 1.18199e-16 -0.92388
vt -6.03254 -1.72144e-15
vt -1.51266 -1.72144e-15
f 28/3/45 80/163/45 27/164/45

f 80/163/45 28/3/45 79/1/45

g Mesh2 Group2 Model

usemtl Color_C05
v 0 500 177.06
vt -28.2778 21.3069
v 504.057 500 504.057
vt -48.1225 8.43304
v -2.27374e-13 500 712.844
vt -28.2778 0.213069
f 81/165/15 82/166/15 83/167/15

v 125.2 500 125.2
vt -33.2069 23.3487
f 82/166/15 81/165/15 84/168/15

v 86.9318 500 86.9318
vt -31.7003 24.8553
f 81/165/15 85/169/15 84/168/15

vt -28.2778 23.4376
f 85/169/15 81/165/15 53/170/15

v -86.9318 500 86.9318
vt -24.8553 24.8553
f 81/165/15 86/171/15 53/170/15

v -125.2 500 125.2
vt -23.3487 23.3487
f 86/171/15 81/165/15 87/172/15

f 83/167/15 87/172/15 81/165/15

v -504.057 500 504.057
vt -8.43304 8.43304
f 87/172/15 83/167/15 88/173/15

v -1.13687e-13 505 718.256
vt 26.1253 -7.51272
vn 2.95231e-14 -0.73451 0.678598
vt 4.56393 -7.79111
vn -0.479841 -0.73451 0.479841
vt 26.0437 -7.79111
f 89/174/46 88/175/47 83/176/46

v -507.884 505 507.884
vt 4.48239 -7.51272
f 88/175/47 89/174/46 90/177/47

v -1.13687e-13 520 718.256
vt 26.1253 0.787402
vn -1.50212e-16 -3.18343e-16 1
vt 4.48239 0.19685
vn -0.707107 -6.36686e-16 0.707107
vt 26.1253 0.19685
f 91/178/48 90/179/49 89/180/48

v -507.884 520 507.884
vt 4.48239 0.787402
f 90/179/49 91/178/48 92/181/49

vt 26.1253 8.20869
vn 4.34774e-14 0.73451 0.678598
v -504.057 525 504.057
vt 4.56393 8.48708
vn -0.479841 0.73451 0.479841
vt 4.48239 8.20869
f 91/182/50 93/183/51 92/184/51

v -2.27374e-13 525 712.844
vt 26.0437 8.48708
f 93/183/51 91/182/50 94/185/50

vt 26.1253 -7.09514
v 504.057 525 504.057
vt 47.6866 -6.81675
vn 0.479841 0.73451 0.479841
vt 26.2068 -6.81675
f 91/186/50 95/187/52 94/188/50

v 507.884 520 507.884
vt 47.7682 -7.09514
f 95/187/52 91/186/50 96/189/52

vt 47.7682 0.787402
vn 0.707107 -2.18434e-29 0.707107
f 89/180/48 96/190/53 91/178/48

v 507.884 505 507.884
vt 47.7682 0.19685
f 96/190/53 89/180/48 97/191/53

vt 26.1253 7.79111
vt 47.6866 7.51272
vn 0.479841 -0.73451 0.479841
vt 47.7682 7.79111
f 89/192/46 82/193/54 97/194/54

vt 26.2068 7.51272
f 82/193/54 89/192/46 83/195/46

v 712.844 500 -0
vt 47.6866 29.1556
vn 0.678598 -0.73451 -1.45021e-14
vt 26.1253 29.434
vt 26.2068 29.1556
f 98/196/55 97/197/54 82/198/54

v 718.256 505 -0
vt 47.7682 29.434
f 97/197/54 98/196/55 99/199/55

vt 4.56393 44.4594
v 507.884 505 -507.884
vt 26.1253 44.7378
vn 0.479841 -0.73451 -0.479841
vt 4.48239 44.7378
f 98/200/55 100/201/56 99/202/55

v 504.057 500 -504.057
vt 26.0437 44.4594
f 100/201/56 98/200/55 101/203/56

v 177.06 500 -0
vt -35.2487 28.2778
vt -48.1225 48.1225
vt -56.3425 28.2778
f 102/204/15 101/205/15 98/206/15

v 125.2 500 -125.2
vt -33.2069 33.2069
f 101/205/15 102/204/15 103/207/15

vt -33.118 28.2778
f 75/208/15 103/207/15 102/204/15

v 86.9318 500 -86.9318
vt -31.7003 31.7003
f 103/207/15 75/208/15 104/209/15

f 85/169/15 104/209/15 75/208/15

f 53/170/15 104/209/15 85/169/15

vt -28.2778 33.118
f 53/170/15 73/210/15 104/209/15

f 86/171/15 73/210/15 53/170/15

v -86.9318 500 -86.9318
vt -24.8553 31.7003
f 86/171/15 105/211/15 73/210/15

v -122.94 500 -0
vt -23.4376 28.2778
f 105/211/15 86/171/15 106/212/15

f 87/172/15 106/212/15 86/171/15

v -177.06 500 -0
vt -21.3069 28.2778
f 106/212/15 87/172/15 107/213/15

f 88/173/15 107/213/15 87/172/15

v -712.844 500 1.13687e-13
vt -0.213069 28.2778
f 107/213/15 88/173/15 108/214/15

vt -4.48239 -7.51272
vt -26.0437 -7.79111
vn -0.678598 -0.73451 2.3065e-16
vt -4.56393 -7.79111
f 90/215/47 108/216/57 88/217/47

v -718.256 505 -1.13687e-13
vt -26.1253 -7.51272
f 108/216/57 90/215/47 109/218/57

vt -4.48239 0.19685
v -718.256 520 -1.13687e-13
vt -26.1253 0.787402
vn -1 -3.18343e-16 -1.50212e-16
vt -26.1253 0.19685
f 90/219/49 110/220/58 109/221/58

vt -4.48239 0.787402
f 110/220/58 90/219/49 92/222/49

vt -4.48239 8.20869
v -712.844 525 1.13687e-13
vt -26.0437 8.48708
vn -0.678598 0.73451 1.44733e-14
vt -26.1253 8.20869
f 92/223/51 111/224/59 110/225/59

vt -4.56393 8.48708
f 111/224/59 92/223/51 93/226/51

vt 8.43304 8.43304
v -504.057 525 -504.057
vt 8.43304 48.1225
vt 0.213069 28.2778
f 93/227/4 112/228/4 111/229/4

vt 28.2778 0.213069
f 112/228/4 93/227/4 94/230/4

v 1.13687e-13 525 -712.844
vt 28.2778 56.3425
f 112/228/4 94/230/4 113/231/4

vt 48.1225 8.43304
f 113/231/4 94/230/4 95/232/4

v 504.057 525 -504.057
vt 48.1225 48.1225
f 113/231/4 95/232/4 114/233/4

v 712.844 525 -0
vt 56.3425 28.2778
f 114/233/4 95/232/4 115/234/4

vt 26.1253 -28.738
vt 47.6866 -28.4596
vn 0.678598 0.73451 -1.45021e-14
vt 26.2068 -28.4596
f 96/235/52 115/236/60 95/237/52

v 718.256 520 -0
vt 47.7682 -28.738
f 115/236/60 96/235/52 116/238/60

vn 1 0 -0
f 96/178/53 99/191/61 116/190/61

f 99/191/61 96/178/53 97/180/53

vn 0.707107 0 -0.707107
f 100/180/62 116/181/61 99/179/61

v 507.884 520 -507.884
f 116/181/61 100/180/62 117/178/62

v 1.13687e-13 520 -718.256
vn 1.50212e-16 3.18343e-16 -1
f 100/221/62 118/222/63 117/220/62

v 1.13687e-13 505 -718.256
f 118/222/63 100/221/62 119/219/63

vt -26.1253 44.7378
v 1.13687e-13 500 -712.844
vt -4.56393 44.4594
vn 1.54247e-14 -0.73451 -0.678598
vt -4.48239 44.7378
f 100/239/56 120/240/64 119/241/64

vt -26.0437 44.4594
f 120/240/64 100/239/56 101/242/56

vt -28.2778 56.3425
f 103/207/15 120/243/15 101/205/15

v 0 500 -177.06
vt -28.2778 35.2487
f 120/243/15 103/207/15 121/244/15

f 103/207/15 73/210/15 121/244/15

f 73/210/15 103/207/15 104/209/15

f 105/211/15 121/244/15 73/210/15

v -125.2 500 -125.2
vt -23.3487 33.2069
f 121/244/15 105/211/15 122/245/15

f 106/212/15 122/245/15 105/211/15

f 122/245/15 106/212/15 107/213/15

v -504.057 500 -504.057
vt -8.43304 48.1225
f 107/213/15 123/246/15 122/245/15

f 123/246/15 107/213/15 108/214/15

vt -26.2068 7.51272
v -507.884 505 -507.884
vt -47.7682 7.79111
vn -0.479841 -0.73451 -0.479841
vt -47.6866 7.51272
f 108/247/57 124/248/65 123/249/65

vt -26.1253 7.79111
f 124/248/65 108/247/57 109/250/57

v -507.884 520 -507.884
vt -47.7682 0.787402
vn -0.707107 3.18343e-16 -0.707107
vt -47.7682 0.19685
f 109/221/58 125/251/66 124/252/66

f 125/251/66 109/221/58 110/220/58

vt -26.2068 -6.81675
vt -47.7682 -7.09514
vn -0.479841 0.73451 -0.479841
vt -26.1253 -7.09514
f 111/253/59 125/254/67 110/255/59

vt -47.6866 -6.81675
f 125/254/67 111/253/59 112/256/67

vt -26.2068 -28.4596
vt -47.7682 -28.738
vn 1.26857e-15 0.73451 -0.678598
vt -26.1253 -28.738
f 112/257/67 118/258/68 125/259/67

vt -47.6866 -28.4596
f 118/258/68 112/257/67 113/260/68

vt -26.0437 -43.7635
vn 0.479841 0.73451 -0.479841
vt -4.48239 -44.0419
vt -4.56393 -43.7635
f 114/261/69 118/262/68 113/263/68

vt -26.1253 -44.0419
f 118/262/68 114/261/69 117/264/69

vt 4.56393 -43.7635
vt 26.1253 -44.0419
vt 26.0437 -43.7635
f 115/265/60 117/266/69 114/267/69

vt 4.48239 -44.0419
f 117/266/69 115/265/60 116/268/60

f 119/252/63 125/220/66 118/251/63

f 125/220/66 119/252/63 124/221/66

vt -47.7682 29.434
vt -26.2068 29.1556
vt -26.1253 29.434
f 119/269/64 123/270/65 124/271/65

vt -47.6866 29.1556
f 123/270/65 119/269/64 120/272/64

f 120/243/15 122/245/15 123/246/15

f 122/245/15 120/243/15 121/244/15

f 75/208/15 84/168/15 85/169/15

f 84/168/15 75/208/15 102/204/15

f 102/204/15 82/166/15 84/168/15

f 82/166/15 102/204/15 98/206/15

