# Blender v2.79 (sub 0) OBJ File: ''
# www.blender.org
mtllib Obj_1_2.mtl
o Icosphere_Icosphere.001
v 2.408001 -3.690227 1.501493
v 3.909003 0.887559 2.366902
v -0.104645 -0.831380 4.579096
v 4.008794 -0.900747 -2.188267
v -2.485484 -3.682103 1.391101
v 0.056822 -3.724944 -2.791384
v 2.485484 3.682103 -1.391101
v -0.056822 3.724944 2.791384
v -4.008794 0.900747 2.188267
v -3.909003 -0.887559 -2.366902
v 0.104645 0.831380 -4.579096
v -2.408001 3.690227 -1.501493
vt 0.825764 0.049140
vt 0.825764 0.939842
vt 0.054395 0.494493
vt 0.054400 0.490835
vt 0.825766 0.045474
vt 0.825766 0.936177
vt 0.832681 0.941806
vt 0.061309 0.496456
vt 0.832681 0.051096
vt 0.832686 0.055006
vt 0.832686 0.945716
vt 0.061314 0.500356
vt 0.823147 0.049140
vt 0.823147 0.939842
vt 0.051777 0.494493
vt 0.053440 0.494467
vt 0.824809 0.049128
vt 0.824809 0.939839
vt 0.832684 0.943762
vt 0.061309 0.498423
vt 0.832684 0.053055
vt 0.830068 0.055006
vt 0.830068 0.945714
vt 0.058687 0.500355
vt 0.827441 0.936189
vt 0.056066 0.490834
vt 0.827441 0.045474
vt 0.058687 0.496434
vt 0.830062 0.051096
vt 0.830062 0.941803
vt 0.824820 0.045474
vt 0.824820 0.936185
vt 0.053440 0.490837
vt 0.830062 0.053055
vt 0.830062 0.943762
vt 0.058687 0.498423
vt 0.056058 0.494483
vt 0.827441 0.049136
vt 0.827441 0.939830
vt 0.062972 0.496452
vt 0.834354 0.051094
vt 0.834354 0.941795
vt 0.824820 0.943760
vt 0.053440 0.498398
vt 0.824820 0.053050
vt 0.056066 0.498411
vt 0.827438 0.053050
vt 0.827438 0.943760
vt 0.830059 0.049136
vt 0.830059 0.939837
vt 0.058687 0.494487
vt 0.825764 0.943758
vt 0.054398 0.498416
vt 0.825764 0.053055
vt 0.825765 0.941798
vt 0.054395 0.496449
vt 0.825765 0.051096
vt 0.827441 0.941806
vt 0.056068 0.496445
vt 0.827441 0.051095
vn 0.5598 -0.3274 0.7612
vn 0.9304 -0.3337 0.1514
vn -0.0164 -0.7392 0.6733
vn -0.0019 -1.0000 0.0091
vn 0.5833 -0.7493 -0.3134
vn 0.9374 0.3306 -0.1093
vn 0.3377 0.3407 0.8774
vn -0.5946 -0.3255 0.7352
vn -0.5711 -0.7474 -0.3395
vn 0.3758 -0.3419 -0.8613
vn 0.5711 0.7474 0.3395
vn -0.3758 0.3419 0.8613
vn -0.9374 -0.3306 0.1093
vn -0.3377 -0.3407 -0.8774
vn 0.5946 0.3255 -0.7352
vn 0.0019 1.0000 -0.0091
vn -0.5833 0.7493 0.3134
vn -0.9304 0.3337 -0.1514
vn -0.5598 0.3274 -0.7612
vn 0.0164 0.7392 -0.6733
usemtl Material.001
s 1
f 1/1/1 2/2/1 3/3/1
f 2/4/2 1/5/2 4/6/2
f 1/7/3 3/8/3 5/9/3
f 1/10/4 5/11/4 6/12/4
f 1/13/5 6/14/5 4/15/5
f 2/16/6 4/17/6 7/18/6
f 3/19/7 2/20/7 8/21/7
f 5/22/8 3/23/8 9/24/8
f 6/25/9 5/26/9 10/27/9
f 4/28/10 6/29/10 11/30/10
f 2/31/11 7/32/11 8/33/11
f 3/34/12 8/35/12 9/36/12
f 5/37/13 9/38/13 10/39/13
f 6/40/14 10/41/14 11/42/14
f 4/43/15 11/44/15 7/45/15
f 8/46/16 7/47/16 12/48/16
f 9/49/17 8/50/17 12/51/17
f 10/52/18 9/53/18 12/54/18
f 11/55/19 10/56/19 12/57/19
f 7/58/20 11/59/20 12/60/20
